HIERARCHY
ROOT Hips
{
	OFFSET 0.000000 0.000000 0.000000
	CHANNELS 6 Xposition Yposition Zposition Zrotation Yrotation Xrotation 
	JOINT LHipJoint
	{
		OFFSET 0.000000 0.000000 0.000000
		CHANNELS 3 Zrotation Yrotation Xrotation
		JOINT LeftUpLeg
		{
			OFFSET 1.363060 -1.794630 0.839290
			CHANNELS 3 Zrotation Yrotation Xrotation
			JOINT LeftLeg
			{
				OFFSET 2.448110 -6.726130 0.000000
				CHANNELS 3 Zrotation Yrotation Xrotation
				JOINT LeftFoot
				{
					OFFSET 2.562200 -7.039590 0.000000
					CHANNELS 3 Zrotation Yrotation Xrotation
					JOINT LeftToeBase
					{
						OFFSET 0.157640 -0.433110 2.322550
						CHANNELS 3 Zrotation Yrotation Xrotation
						End Site
						{
							OFFSET 0.000000 0.000000 0.000000
						}
					}
				}
			}
		}
	}
	JOINT RHipJoint
	{
		OFFSET 0.000000 0.000000 0.000000
		CHANNELS 3 Zrotation Yrotation Xrotation
		JOINT RightUpLeg
		{
			OFFSET -1.305520 -1.794630 0.839290
			CHANNELS 3 Zrotation Yrotation Xrotation
			JOINT RightLeg
			{
				OFFSET -2.542530 -6.985550 0.000000
				CHANNELS 3 Zrotation Yrotation Xrotation
				JOINT RightFoot
				{
					OFFSET -2.568260 -7.056230 0.000000
					CHANNELS 3 Zrotation Yrotation Xrotation
					JOINT RightToeBase
					{
						OFFSET -0.164730 -0.452590 2.363150
						CHANNELS 3 Zrotation Yrotation Xrotation
						End Site
						{
							OFFSET 0.000000 0.000000 0.000000
						}
					}
				}
			}
		}
	}
	JOINT LowerBack
	{
		OFFSET 0.000000 0.000000 0.000000
		CHANNELS 3 Zrotation Yrotation Xrotation
		JOINT Spine
		{
			OFFSET 0.028270 2.035590 -0.193380
			CHANNELS 3 Zrotation Yrotation Xrotation
			JOINT Spine1
			{
				OFFSET 0.056720 2.048850 -0.042750
				CHANNELS 3 Zrotation Yrotation Xrotation
				JOINT Neck
				{
					OFFSET 0.000000 0.000000 0.000000
					CHANNELS 3 Zrotation Yrotation Xrotation
					JOINT Neck1
					{
						OFFSET -0.054170 1.746240 0.172020
						CHANNELS 3 Zrotation Yrotation Xrotation
						JOINT Head
						{
							OFFSET 0.104070 1.761360 -0.123970
							CHANNELS 3 Zrotation Yrotation Xrotation
							End Site
							{
								OFFSET 0.000000 0.000000 0.000000
							}
						}
					}
				}
				JOINT LeftShoulder
				{
					OFFSET 0.000000 0.000000 0.000000
					CHANNELS 3 Zrotation Yrotation Xrotation
					JOINT LeftArm
					{
						OFFSET 3.362410 1.200890 -0.311210
						CHANNELS 3 Zrotation Yrotation Xrotation
						JOINT LeftForeArm
						{
							OFFSET 4.983000 -0.000000 -0.000000
							CHANNELS 3 Zrotation Yrotation Xrotation
							JOINT LeftHand
							{
								OFFSET 3.483560 -0.000000 -0.000000
								CHANNELS 3 Zrotation Yrotation Xrotation
								JOINT LeftFingerBase
								{
									OFFSET 0.000000 0.000000 0.000000
									CHANNELS 3 Zrotation Yrotation Xrotation
									JOINT LeftHandIndex1
									{
										OFFSET 0.715260 -0.000000 -0.000000
										CHANNELS 3 Zrotation Yrotation Xrotation
										End Site
										{
											OFFSET 0.000000 0.000000 0.000000
										}
									}
								}
								JOINT LThumb
								{
									OFFSET 0.000000 0.000000 0.000000
									CHANNELS 3 Zrotation Yrotation Xrotation
									End Site
									{
										OFFSET 0.000000 0.000000 0.000000
									}
								}
							}
						}
					}
				}
				JOINT RightShoulder
				{
					OFFSET 0.000000 0.000000 0.000000
					CHANNELS 3 Zrotation Yrotation Xrotation
					JOINT RightArm
					{
						OFFSET -3.136600 1.374050 -0.404650
						CHANNELS 3 Zrotation Yrotation Xrotation
						JOINT RightForeArm
						{
							OFFSET -5.241900 -0.000000 -0.000000
							CHANNELS 3 Zrotation Yrotation Xrotation
							JOINT RightHand
							{
								OFFSET -3.444170 -0.000000 -0.000000
								CHANNELS 3 Zrotation Yrotation Xrotation
								JOINT RightFingerBase
								{
									OFFSET 0.000000 0.000000 0.000000
									CHANNELS 3 Zrotation Yrotation Xrotation
									JOINT RightHandIndex1
									{
										OFFSET -0.622530 -0.000000 -0.000000
										CHANNELS 3 Zrotation Yrotation Xrotation
										End Site
										{
											OFFSET 0.000000 0.000000 0.000000
										}
									}
								}
								JOINT RThumb
								{
									OFFSET 0.000000 0.000000 0.000000
									CHANNELS 3 Zrotation Yrotation Xrotation
									End Site
									{
										OFFSET 0.000000 0.000000 0.000000
									}
								}
							}
						}
					}
				}
			}
		}
	}
}
MOTION
Frames: 8
Frame Time: 0.008333
0.238017 17.323705 -19.609708 0.594561 -2.293133 20.319080 -2.311443 -4.371645 -5.557651 -11.102500 -7.691841 -45.011059 -0.451942 9.980621 24.360419 0.634110 1.236459 12.171346 0.449800 -4.302700 -11.929800 1.703059 1.199338 0.452161 14.650758 -2.802835 -3.986465 -1.423301 -9.784951 30.029352 -1.759135 18.508987 13.341623 -0.301300 3.529100 -9.755400 -2.132498 2.696060 -8.013533 -0.100451 3.336823 -9.251647 -0.761184 2.122485 -1.162747 -2.002294 -1.276355 -9.442344 3.538631 -1.821516 9.655837 -0.036100 -0.718200 3.336400 12.870850 8.011034 0.622351 -100.169859 23.504208 -33.760690 1.670691 -8.028862 0.319085 -1.314114 -0.421119 49.451028 18.275781 -15.782261 -4.840800 -7.125000 0.000000 0.000000 -5.893800 14.871400 4.206500 -13.137433 -6.999294 -0.756349 93.143896 7.019538 34.431406 -43.887703 55.260052 -21.615186 0.543930 -1.039450 -20.900575 -19.979338 -32.834654 10.858000 7.125000 0.000000 0.000000 14.210600 -62.620800 -6.149200
0.241141 17.324007 -19.480422 0.790588 -2.098040 20.265258 -2.295170 -4.334238 -5.508352 -11.361835 -7.934215 -44.973119 -0.320864 10.218759 25.073034 0.607086 1.200991 11.932317 0.441115 -4.261412 -11.813227 1.658109 1.221835 0.389916 14.521343 -2.754107 -4.356748 -1.631561 -10.151608 31.222079 -1.740209 17.453131 15.251574 -0.209110 2.850096 -7.867750 -2.414684 2.607536 -8.042856 -0.128504 3.270556 -9.247295 -0.721072 2.084382 -1.144703 -2.043595 -1.293244 -9.388625 3.640281 -1.856385 9.617738 0.019028 -0.733480 3.301939 12.864143 7.993895 0.613018 -100.086437 23.325204 -34.139653 1.666545 -7.997900 0.316428 -1.311116 -0.418883 49.728271 18.270512 -15.665631 -4.800162 -7.125000 0.000000 0.000000 -5.898398 14.991735 4.194518 -13.148801 -7.000445 -0.731383 93.202711 6.486209 34.342400 -43.832068 55.236309 -21.568269 0.543055 -1.039491 -21.050266 -20.093678 -32.700047 10.880154 7.125000 0.000000 0.000000 13.983770 -62.517649 -6.015675
0.244265 17.324309 -19.351136 0.986615 -1.902946 20.211437 -2.278896 -4.296831 -5.459052 -11.621169 -8.176590 -44.935179 -0.189787 10.456897 25.785649 0.580063 1.165524 11.693289 0.432430 -4.220123 -11.696654 1.613159 1.244332 0.327671 14.391928 -2.705380 -4.727032 -1.839820 -10.518264 32.414806 -1.721283 16.397276 17.161526 -0.116919 2.171092 -5.980100 -2.696869 2.519013 -8.072179 -0.156558 3.204290 -9.242943 -0.680959 2.046280 -1.126659 -2.084897 -1.310132 -9.334906 3.741932 -1.891254 9.579640 0.074157 -0.748760 3.267478 12.857435 7.976757 0.603685 -100.003015 23.146201 -34.518616 1.662399 -7.966939 0.313771 -1.308118 -0.416647 50.005514 18.265242 -15.549000 -4.759524 -7.125000 0.000000 0.000000 -5.902996 15.112070 4.182535 -13.160168 -7.001597 -0.706418 93.261525 5.952879 34.253394 -43.776434 55.212565 -21.521352 0.542180 -1.039532 -21.199957 -20.208018 -32.565440 10.902307 7.125000 0.000000 0.000000 13.756940 -62.414498 -5.882150
0.240050 17.329518 -19.225092 1.291477 -1.880692 20.128693 -2.274402 -4.247739 -5.395098 -11.996058 -8.289932 -44.851643 -0.073727 10.657361 26.414437 0.568397 1.023780 11.333774 0.388348 -3.992015 -11.055372 1.567666 1.271779 0.252520 14.142782 -2.429667 -5.105695 -2.109059 -10.924515 33.741380 -1.723717 15.246749 18.562686 -0.115228 2.183400 -6.012881 -3.226419 2.430774 -8.062852 -0.185467 3.173321 -9.245175 -0.511827 2.032900 -1.082010 -2.042733 -1.434545 -9.701593 3.753174 -2.048889 9.785648 0.049641 -0.818867 3.471635 12.851645 7.975024 0.583681 -99.925641 22.951242 -34.907758 1.672720 -7.976672 0.297294 -1.294510 -0.412506 50.112612 18.049173 -15.288391 -4.621228 -7.125000 0.000000 0.000000 -6.050285 15.387014 4.250905 -13.161030 -6.981350 -0.697466 93.293916 5.511298 34.233917 -43.499871 55.073446 -21.315018 0.536751 -1.038536 -21.366373 -20.245100 -32.103334 10.777758 7.125000 0.000000 0.000000 13.399454 -61.972711 -5.591303
0.234508 17.335615 -19.099634 1.616023 -1.889695 20.040717 -2.272039 -4.196534 -5.328493 -12.391846 -8.379938 -44.759861 0.039617 10.851011 27.028064 0.559509 0.862815 10.952469 0.337864 -3.730120 -10.319195 1.522075 1.300121 0.175036 13.871983 -2.112903 -5.485874 -2.389325 -11.337926 35.092160 -1.730015 14.079100 19.871831 -0.129905 2.320734 -6.392975 -3.800705 2.342586 -8.046535 -0.214531 3.148736 -9.248598 -0.319362 2.023992 -1.032549 -1.985474 -1.578402 -10.144310 3.748067 -2.228726 10.035802 0.010721 -0.898889 3.718947 12.846021 7.976077 0.561747 -99.849360 22.753398 -35.298742 1.685657 -7.993765 0.278318 -1.278983 -0.408019 50.188938 17.794981 -15.001742 -4.465271 -7.125000 0.000000 0.000000 -6.223380 15.689918 4.333807 -13.159992 -6.957234 -0.691412 93.321528 5.086310 34.227015 -43.183354 54.913461 -21.079854 0.530497 -1.037352 -21.535813 -20.268209 -31.581999 10.626677 7.125000 0.000000 0.000000 13.018338 -61.469681 -5.272003
0.231621 17.342270 -18.978756 1.831359 -2.005216 19.982900 -2.267408 -4.158471 -5.264815 -12.720676 -8.336309 -44.665675 0.135405 11.004440 27.539284 0.576141 0.601739 10.622787 0.287057 -3.430659 -9.481534 1.476677 1.331237 0.094060 13.643453 -1.697761 -5.935846 -2.691083 -11.747186 36.459108 -1.743356 13.329685 21.020383 -0.171998 2.640451 -7.281075 -4.234347 2.319778 -7.960092 -0.247048 3.179491 -9.270699 -0.174159 2.046115 -1.087741 -2.003624 -1.651232 -10.414358 3.809427 -2.322386 10.173946 0.028795 -0.938639 3.871152 12.830125 7.962621 0.541645 -99.790724 22.639031 -35.706226 1.732056 -8.081210 0.258725 -1.267159 -0.402351 50.250722 17.589540 -14.799309 -4.351518 -7.125000 0.000000 0.000000 -6.363581 15.902743 4.403467 -13.159178 -6.931502 -0.677095 93.412695 4.486226 34.051125 -43.157811 54.891951 -21.051012 0.533624 -1.035011 -21.580468 -20.077344 -31.195681 10.406071 7.125000 0.000000 0.000000 12.965938 -61.045939 -5.116466
0.229908 17.349173 -18.859899 1.998472 -2.167770 19.938399 -2.261775 -4.126213 -5.202429 -13.019942 -8.233672 -44.570427 0.223442 11.140110 28.005286 0.604042 0.296458 10.315899 0.236109 -3.114611 -8.599061 1.431364 1.363579 0.011542 13.433588 -1.239180 -6.416636 -3.002331 -12.154614 37.833195 -1.759807 12.764944 22.098025 -0.226197 3.040701 -8.393490 -4.605888 2.325838 -7.842684 -0.281089 3.234683 -9.301048 -0.049825 2.081941 -1.189142 -2.055071 -1.692699 -10.608163 3.900138 -2.377993 10.262631 0.072033 -0.960607 3.981363 12.809695 7.942758 0.522354 -99.739878 22.561524 -36.120994 1.793229 -8.199719 0.238860 -1.256970 -0.396160 50.306086 17.405625 -14.634062 -4.256402 -7.125000 0.000000 0.000000 -6.489257 16.075791 4.467280 -13.158462 -6.905057 -0.659131 93.531926 3.808829 33.800617 -43.260751 54.931586 -21.113273 0.540892 -1.032159 -21.570023 -19.791998 -30.868980 10.154765 7.125000 0.000000 0.000000 13.058686 -60.657207 -5.033239
0.230891 17.356403 -18.742350 2.093402 -2.412245 19.955704 -2.249193 -4.104877 -5.146221 -13.273054 -8.053941 -44.528112 0.304036 11.256787 28.414008 0.621117 0.075556 10.061667 0.191788 -2.806145 -7.740387 1.382746 1.399864 -0.076648 13.243045 -0.699890 -6.996868 -3.337785 -12.569551 39.266471 -1.783337 12.448287 23.156832 -0.251527 3.227186 -8.911830 -4.863930 2.371860 -7.772902 -0.321580 3.324147 -9.344373 0.009339 2.132366 -1.316041 -2.067969 -1.707197 -10.697716 3.959984 -2.401682 10.307653 0.096419 -0.968315 4.038979 12.786693 7.920765 0.502626 -99.693887 22.494178 -36.567837 1.864945 -8.336759 0.220166 -1.248745 -0.391802 50.430356 17.299870 -14.475389 -4.182047 -7.125000 0.000000 0.000000 -6.562615 16.239400 4.495345 -13.155757 -6.880409 -0.636186 93.718471 3.049516 33.487797 -43.463873 55.022906 -21.247934 0.549530 -1.030014 -21.430428 -19.505699 -30.768048 9.974379 7.125000 0.000000 0.000000 13.295308 -60.490449 -5.074531
